<svg width="100" height="100" viewBox="0 0 100 100" fill="none" xmlns="http://www.w3.org/2000/svg">
<g clip-path="url(#clip0_2002_429)">
<path d="M87.5833 20.8333H79.1667V12.4167C79.1667 10.1667 77.3333 8.33333 75.0833 8.33333H74.9583C72.6667 8.33333 70.8333 10.1667 70.8333 12.4167V20.8333H62.4583C60.2083 20.8333 58.375 22.6667 58.3333 24.9167V25.0417C58.3333 27.3333 60.1667 29.1667 62.4583 29.1667H70.8333V37.5417C70.8333 39.7917 72.6667 41.6667 74.9583 41.625H75.0833C77.3333 41.625 79.1667 39.7917 79.1667 37.5417V29.1667H87.5833C89.8333 29.1667 91.6667 27.3333 91.6667 25.0833V24.9167C91.6667 22.6667 89.8333 20.8333 87.5833 20.8333ZM66.6667 37.5417V33.3333H62.4583C60.25 33.3333 58.1667 32.4583 56.5833 30.9167C55.0417 29.3333 54.1667 27.25 54.1667 24.9167C54.1667 23.4167 54.5833 22.0417 55.2917 20.8333H20.8333C16.25 20.8333 12.5 24.5833 12.5 29.1667V79.1667C12.5 83.75 16.25 87.5 20.8333 87.5H70.8333C75.4167 87.5 79.1667 83.75 79.1667 79.1667V44.6667C77.9167 45.375 76.5 45.8333 74.9167 45.8333C70.375 45.7917 66.6667 42.0833 66.6667 37.5417ZM66.5 79.1667H25C23.2917 79.1667 22.2917 77.2083 23.3333 75.8333L31.5833 64.875C32.4583 63.7083 34.1667 63.7917 35 64.9583L41.6667 75L52.5417 60.5C53.375 59.4167 55 59.375 55.8333 60.4583L68.125 75.7917C69.2083 77.1667 68.25 79.1667 66.5 79.1667V79.1667Z" fill="#323232"/>
</g>
<defs>
<clipPath id="clip0_2002_429">
<rect width="100" height="100" fill="white"/>
</clipPath>
</defs>
</svg>
